PathFileType   4   (X/Y/Z)
DataRate	CameraRate	NumFrames	NumMarkers	Units	OrigDataRate	OrigDataStartFrame	OrigNumFrames
120.0	120.0	6	37	mm	120.0	65	173
Frame#	Time	midhip	hip_r	hip_l	knee_r	knee_l	ankle_r	ankle_l	midasis	asis_r	asis_l	psis_r	psis_l	epicondLat_r	epicondLat_l	epicondMed_r	epicondMed_l	malleolusLat_r	malleolusLat_l	malleolusMedv_r	malleolusMedv_l	neck	subclavicle_r	subclavicle_l	sternalnotch	xyphoidprocess	thighwand_r	thighwand_l	upperleg1_r	upperleg1_l	upperleg2_r	upperleg2_l	shankwand_r	shankwand_l	lowerleg1_r	lowerleg1_l	toe_r	toe_l
 	 	X1	Y1	Z1	X2	Y2	Z2	X3	Y3	Z3	X4	Y4	Z4	X5	Y5	Z5	X6	Y6	Z6	X7	Y7	Z7	X8	Y8	Z8	X9	Y9	Z9	X10	Y10	Z10	X11	Y11	Z11	X12	Y12	Z12	X13	Y13	Z13	X14	Y14	Z14	X15	Y15	Z15	X16	Y16	Z16	X17	Y17	Z17	X18	Y18	Z18	X19	Y19	Z19	X20	Y20	Z20	X21	Y21	Z21	X22	Y22	Z22	X23	Y23	Z23	X24	Y24	Z24	X25	Y25	Z25	X26	Y26	Z26	X27	Y27	Z27	X28	Y28	Z28	X29	Y29	Z29	X30	Y30	Z30	X31	Y31	Z31	X32	Y32	Z32	X33	Y33	Z33	X34	Y34	Z34	X35	Y35	Z35	X36	Y36	Z36	X37	Y37	Z37

	65	0.76667	-1282.887	609.318	256.586	-1280.366	621.273	313.996	-1275.488	622.834	196.662	-1317.395	327.879	293.178	-1146.256	343.289	210.804	-1430.259	55.154	270.514	-1018.670	82.663	205.579	-1239.180	687.569	257.812	-1242.975	686.354	349.106	-1235.384	688.784	166.517	-1380.933	696.600	294.787	-1371.644	690.034	209.568	-1329.657	326.283	337.485	-1148.990	339.608	163.024	-1314.991	332.103	250.579	-1149.135	341.085	251.849	-1434.982	54.353	303.669	-1031.824	76.808	176.442	-1431.853	62.375	242.512	-1016.586	87.306	239.800	-1287.438	1013.200	267.720	-1207.549	927.200	296.333	-1221.249	930.131	207.213	-1224.518	944.258	261.696	-1213.320	803.120	250.085	-1187.343	398.856	306.611	-1126.397	436.201	101.993	-1254.765	461.110	338.546	-1157.703	487.405	179.987	-1281.737	378.131	332.149	-1124.290	412.624	201.337	-1382.674	112.883	375.164	-984.471	224.609	214.950	-1373.860	185.160	322.332	-1064.621	246.858	204.320	-1348.144	39.799	263.963	-936.001	101.770	196.914
	66	0.77500	-1277.302	608.346	256.345	-1275.084	620.316	313.770	-1269.678	621.882	196.460	-1314.309	327.161	293.140	-1140.523	342.426	211.354	-1429.806	55.410	270.455	-1014.583	80.910	206.788	-1233.597	686.586	257.777	-1237.804	685.367	349.056	-1229.391	687.805	166.498	-1375.393	695.649	294.052	-1365.799	689.217	208.910	-1326.803	325.719	337.388	-1142.919	338.771	163.553	-1311.700	331.160	250.726	-1143.415	340.501	252.539	-1434.605	54.682	303.602	-1027.567	75.168	177.553	-1431.555	62.668	242.457	-1012.717	85.462	241.020	-1281.902	1012.273	266.786	-1201.968	926.168	295.457	-1215.669	929.033	206.412	-1218.888	943.262	260.829	-1207.797	802.054	249.344	-1183.753	397.082	307.131	-1119.986	435.472	102.797	-1250.785	459.940	338.684	-1151.692	486.754	180.562	-1278.455	377.021	332.336	-1118.367	412.050	202.106	-1381.858	112.826	375.136	-979.469	222.598	216.541	-1372.398	184.941	322.277	-1059.353	245.451	205.414	-1348.018	39.774	263.988	-931.811	99.583	198.689
	67	0.78333	-1271.637	607.364	256.065	-1269.716	619.341	313.525	-1263.762	620.908	196.241	-1311.182	326.431	293.114	-1134.740	341.512	211.851	-1429.325	55.680	270.402	-1011.037	78.843	207.912	-1227.904	685.574	257.729	-1232.537	684.354	348.990	-1223.271	686.794	166.468	-1369.756	694.702	293.284	-1359.812	688.401	208.230	-1323.908	325.153	337.300	-1136.783	337.897	164.030	-1308.401	330.436	250.887	-1137.366	339.887	253.209	-1434.207	55.031	303.538	-1023.812	73.267	178.553	-1431.314	62.973	242.441	-1009.509	83.258	242.146	-1276.145	1011.305	265.747	-1196.209	925.280	294.680	-1210.012	927.893	205.540	-1213.157	942.280	259.964	-1202.123	801.036	248.884	-1180.184	395.288	307.649	-1113.472	434.719	103.577	-1246.732	458.845	338.813	-1145.671	486.093	181.170	-1275.072	376.209	332.533	-1112.274	411.499	202.867	-1381.037	112.787	375.126	-974.721	220.176	218.238	-1370.917	184.670	322.212	-1054.288	243.718	206.458	-1347.881	39.751	263.998	-928.144	96.926	200.557
	68	0.79167	-1265.879	606.370	255.758	-1264.258	618.355	313.262	-1257.737	619.915	196.008	-1307.997	325.693	293.094	-1128.928	340.540	212.297	-1428.821	55.984	270.357	-1007.980	76.526	208.946	-1222.091	684.534	257.668	-1227.165	683.320	348.910	-1217.017	685.747	166.427	-1364.017	693.776	292.466	-1353.688	687.599	207.524	-1320.947	324.587	337.220	-1130.607	336.977	164.459	-1305.011	330.053	250.786	-1131.183	339.164	253.779	-1433.786	55.416	303.482	-1020.507	71.161	179.441	-1430.964	63.357	242.461	-1006.853	80.749	243.161	-1270.220	1010.335	264.670	-1190.387	924.446	293.887	-1204.145	926.752	204.672	-1207.322	941.325	259.111	-1196.316	800.044	248.494	-1176.611	393.487	308.152	-1106.869	433.907	104.331	-1242.562	457.688	339.002	-1139.682	485.370	181.785	-1271.541	375.646	332.600	-1106.123	410.904	203.591	-1380.187	112.779	375.135	-970.232	217.400	220.025	-1369.325	184.426	322.154	-1049.400	241.722	207.466	-1347.731	39.737	264.000	-924.955	93.853	202.494
	69	0.80000	-1260.019	605.369	255.434	-1258.704	617.368	312.985	-1251.607	618.908	195.765	-1304.732	324.952	293.075	-1123.122	339.507	212.701	-1428.291	56.339	270.324	-1005.327	74.050	209.906	-1216.152	683.470	257.595	-1221.675	682.271	348.819	-1210.629	684.669	166.371	-1358.166	692.886	291.595	-1347.440	686.825	206.789	-1317.897	324.024	337.141	-1124.432	336.004	164.847	-1301.528	329.294	250.700	-1125.108	338.360	254.245	-1433.335	55.855	303.438	-1017.568	68.930	180.237	-1430.403	63.864	242.500	-1004.795	77.959	244.107	-1264.350	1009.398	263.597	-1184.483	923.571	293.021	-1198.140	925.709	203.842	-1201.384	940.406	258.263	-1190.298	799.085	247.871	-1173.009	391.687	308.629	-1100.200	433.003	105.063	-1238.619	456.439	339.176	-1133.647	484.564	182.277	-1268.080	374.732	332.663	-1099.991	410.213	204.230	-1379.281	112.815	375.167	-965.990	214.365	221.896	-1367.620	184.259	322.169	-1044.688	239.533	208.445	-1347.565	39.736	264.005	-922.153	90.428	204.470
	70	0.80833	-1254.065	604.369	255.103	-1253.046	616.385	312.697	-1245.373	617.897	195.513	-1301.370	324.217	293.046	-1117.378	338.417	213.077	-1427.731	56.756	270.311	-1002.971	71.534	210.823	-1210.083	682.389	257.509	-1216.055	681.212	348.718	-1204.110	683.567	166.301	-1352.190	692.046	290.678	-1341.089	686.089	206.025	-1314.742	323.468	337.053	-1118.315	334.980	165.209	-1298.156	328.447	250.839	-1119.217	337.485	254.651	-1432.845	56.358	303.416	-1014.885	66.679	180.978	-1429.752	64.525	242.504	-1003.357	74.926	244.990	-1258.457	1008.516	262.514	-1178.394	922.755	292.261	-1192.072	924.733	203.036	-1195.347	939.526	257.412	-1184.073	798.189	247.294	-1169.343	389.892	309.075	-1093.499	431.980	105.780	-1234.462	455.343	339.299	-1127.489	483.679	182.665	-1264.634	373.653	332.818	-1093.887	409.395	204.805	-1378.298	112.909	375.224	-961.964	211.204	223.860	-1365.803	184.210	322.213	-1040.167	237.142	209.390	-1347.381	39.753	264.023	-919.606	86.727	206.443
